Coordinates
version=1
nRows=24
nColumns=24
inDegrees=yes

Units are S.I. units (second, meters, Newtons, ...)
Angles are in degrees.

endheader
time	pelvis_tilt	pelvis_list	pelvis_rotation	pelvis_tx	pelvis_ty	pelvis_tz	hip_flexion_r	hip_adduction_r	hip_rotation_r	knee_angle_r	ankle_angle_r	subtalar_angle_r	mtp_angle_r	hip_flexion_l	hip_adduction_l	hip_rotation_l	knee_angle_l	ankle_angle_l	subtalar_angle_l	mtp_angle_l	lumbar_extension	lumbar_bending	lumbar_rotation
      1.18666667	     -4.38139701	      5.23995055	      0.84079586	      0.20370607	      0.99079285	      0.28666254	     25.89614017	     -6.18875196	     -1.15172859	    -71.78481351	     -1.34619417	     -9.55766232	      3.39729954	     13.17904852	     10.52496570	      2.52401602	    -11.21601882	      0.76598087	    -11.03155397	      1.32788494	      0.41342465	     -2.90285609	      3.62146469
      1.19083333	     -4.28304156	      5.16691111	      0.85729564	      0.20885881	      0.99172860	      0.28655892	     26.36342146	     -6.05302976	     -1.05895199	    -71.54674255	     -0.77440002	     -9.98667854	      3.21279188	     12.55532211	     10.45702092	      2.67757206	    -10.87247430	      0.84482317	    -11.06257409	      1.27023335	      0.28518933	     -2.82153147	      3.54603830
      1.19500000	     -4.25288098	      5.05796073	      0.88312263	      0.21398960	      0.99253847	      0.28646616	     26.88285555	     -5.87813565	     -0.98028336	    -71.23707241	     -0.12340533	    -10.21178447	      3.14000980	     12.03832521	     10.34742974	      2.79615123	    -10.59465137	      0.93710319	    -11.04006386	      1.24443803	      0.24113921	     -2.68894700	      3.51579199
      1.19916667	     -4.20285603	      5.00487056	      0.92150176	      0.21909581	      0.99333684	      0.28631162	     27.37521141	     -5.77946974	     -0.90592349	    -70.89585306	      0.54880305	    -10.49342579	      0.61011957	     11.45623419	     10.31547156	      3.08265579	    -10.22698550	      0.94365324	    -11.28281135	      0.32352734	      0.16539905	     -2.62900381	      3.38522806
      1.20333333	     -4.10189225	      4.87856335	      0.92990040	      0.22422849	      0.99420937	      0.28628695	     27.77173394	     -5.57575642	     -0.83193155	    -70.43701938	      1.15853364	    -10.75819785	      0.58506246	     10.87289322	     10.17332584	      3.13924046	     -9.96448304	      1.08314293	    -11.14411346	      0.31736052	      0.02157396	     -2.48360470	      3.38942801
      1.20750000	     -4.04431799	      4.77648449	      0.95189934	      0.22933741	      0.99496574	      0.28623288	     28.20452480	     -5.41007949	     -0.76673459	    -69.93104408	      1.73707038	    -11.04620326	      0.55480001	     10.33210270	     10.06438167	      3.25325075	     -9.69020902	      1.20561916	    -11.09541553	      0.30689709	     -0.05879169	     -2.37113814	      3.36164245
      1.21166667	     -3.97145760	      4.67280073	      0.97820672	      0.23445854	      0.99573121	      0.28617533	     28.59529157	     -5.24791172	     -0.71605111	    -69.35770223	      2.31008769	    -11.34017077	      0.51938405	      9.76927602	      9.95424419	      3.38506444	     -9.40526521	      1.30499112	    -11.09067885	      0.29213517	     -0.15768846	     -2.25276334	      3.32033579
      1.21583333	     -3.87250372	      4.58209017	      0.99603259	      0.23958178	      0.99649664	      0.28612488	     28.94064232	     -5.10040096	     -0.66527546	    -68.72521523	      2.81583104	    -11.71092458	      0.43198698	      9.16075860	      9.85805397	      3.54978862	     -9.08239538	      1.38611878	    -11.14277568	      0.25493996	     -0.29609735	     -2.14597364	      3.24818125
      1.22000000	     -3.80998545	      4.47828458	      1.02754810	      0.24467869	      0.99715646	      0.28607023	     29.30419948	     -4.94543377	     -0.63172669	    -68.03305861	      3.33796302	    -12.00147258	      0.34909481	      8.61345463	      9.74811600	      3.70224841	     -8.80060845	      1.48687722	    -11.18192578	      0.21802773	     -0.38401292	     -2.02912159	      3.19539428
      1.22416667	     -3.77901081	      4.36860258	      1.06617237	      0.24975879	      0.99774027	      0.28602349	     29.67908187	     -4.78564529	     -0.60529371	    -67.27572984	      3.83878120	    -12.22931555	      0.29825870	      8.11529485	      9.63005561	      3.84584645	     -8.54736096	      1.58111039	    -11.20088388	      0.19450130	     -0.43626487	     -1.91013054	      3.16187596
      1.22833333	     -3.67800229	      4.26943663	      1.09011598	      0.25486320	      0.99839026	      0.28599278	     29.95650360	     -4.63588485	     -0.58194112	    -66.45929505	      4.25692357	    -12.59481103	      0.18352189	      7.51143502	      9.52041546	      4.01529567	     -8.23223739	      1.67256577	    -11.26665454	      0.14412143	     -0.58217962	     -1.79856593	      3.08318805
      1.23250000	     -3.62654177	      4.17973146	      1.12629841	      0.25994292	      0.99891388	      0.28595062	     30.27067149	     -4.50324939	     -0.56612917	    -65.59455189	      4.66979703	    -12.89659244	      0.05376115	      6.97739240	      9.42235394	      4.18397262	     -7.94809437	      1.76134754	    -11.33770626	      0.08668270	     -0.66255102	     -1.69900246	      3.02097957
      1.23666667	     -3.55923715	      4.08521283	      1.16320034	      0.26501904	      0.99943036	      0.28591647	     30.54185376	     -4.36710596	     -0.56014770	    -64.66479938	      5.04111841	    -13.18614834	     -0.08480846	      6.42725623	      9.31664356	      4.35038554	     -7.66416885	      1.85262185	    -11.39773790	      0.02603096	     -0.76686801	     -1.59818063	      2.96125014
      1.24083333	     -3.51276117	      3.98234898	      1.20609141	      0.27009390	      0.99987669	      0.28588511	     30.81170313	     -4.22591593	     -0.56891855	    -63.67736161	      5.36832580	    -13.48824706	     -0.23162090	      5.90352356	      9.20052155	      4.51550849	     -7.38811290	      1.95425335	    -11.45368334	     -0.03626025	     -0.84463276	     -1.48655811	      2.89939856
      1.24500000	     -3.47836698	      3.88179698	      1.25927464	      0.27515946	      1.00026367	      0.28583666	     31.07025031	     -4.09785826	     -0.59444112	    -62.63469994	      5.69611168	    -13.70906639	     -0.31264703	      5.40850858	      9.08686189	      4.66183419	     -7.14301797	      2.06276026	    -11.48319579	     -0.06954144	     -0.89854919	     -1.37166268	      2.86482408
      1.24916667	     -3.41259927	      3.81767801	      1.29008881	      0.28022132	      1.00062244	      0.28582752	     31.28761492	     -3.99598523	     -0.59584327	    -61.55975717	      5.90851100	    -14.08259869	     -0.48938399	      4.84816255	      9.00842474	      4.83324048	     -6.83076155	      2.15377421	    -11.57442570	     -0.14180021	     -1.00925570	     -1.30862318	      2.77058249
      1.25333333	     -3.36729233	      3.73253126	      1.34139092	      0.28528274	      1.00093128	      0.28578901	     31.49377936	     -3.88846432	     -0.63572269	    -60.41887047	      6.13253935	    -14.35637122	     -0.64774856	      4.32819087	      8.90813426	      4.98783655	     -6.55582165	      2.26295758	    -11.63842572	     -0.20558479	     -1.07793119	     -1.21495563	      2.70894532
      1.25750000	     -3.32708670	      3.66676779	      1.38895315	      0.29033461	      1.00118039	      0.28575860	     31.68904376	     -3.79902181	     -0.66687001	    -59.23802481	      6.31247207	    -14.62553407	     -0.81326876	      3.81148604	      8.82711671	      5.14643263	     -6.27625042	      2.36162235	    -11.69757842	     -0.27202539	     -1.14857008	     -1.14481267	      2.63983567
      1.26166667	     -3.29816169	      3.59414110	      1.43777316	      0.29537087	      1.00138043	      0.28574219	     31.87436795	     -3.70160733	     -0.70600207	    -58.00579354	      6.44242360	    -14.90167311	     -1.01630740	      3.30377473	      8.73596335	      5.30908997	     -5.98605134	      2.45732680	    -11.75241600	     -0.35281540	     -1.23024143	     -1.07882100	      2.56044401
      1.26583333	     -3.29735548	      3.52136365	      1.50568951	      0.30040255	      1.00149718	      0.28570125	     32.06296917	     -3.61908675	     -0.77241272	    -56.72643097	      6.59460517	    -15.06323250	     -1.12219277	      2.84943789	      8.64547533	      5.44571164	     -5.74485289	      2.56860140	    -11.77024633	     -0.39342217	     -1.25086166	     -0.99726468	      2.52505126
      1.27000000	     -3.23569628	      3.48035863	      1.54205404	      0.30545876	      1.00164238	      0.28569861	     32.17359530	     -3.55473033	     -0.81158774	    -55.41563484	      6.63747738	    -15.35021980	     -1.33054264	      2.29196361	      8.58408461	      5.58249441	     -5.42777216	      2.66868852	    -11.83075080	     -0.47551294	     -1.35406265	     -0.95946613	      2.41831613
      1.27416667	     -3.24320170	      3.40487070	      1.61470562	      0.31049268	      1.00168161	      0.28566191	     32.32382987	     -3.47718405	     -0.90413362	    -54.04439110	      6.71889275	    -15.46984950	     -1.43853799	      1.84327146	      8.48701433	      5.70540586	     -5.17816165	      2.78031243	    -11.83645805	     -0.51711785	     -1.37688839	     -0.88246577	      2.37848070
      1.27833333	     -3.21661133	      3.35331713	      1.66705450	      0.31554040	      1.00171195	      0.28564605	     32.42036003	     -3.41317776	     -0.97430405	    -52.64080370	      6.72727761	    -15.63248191	     -1.56977699	      1.34031008	      8.41274913	      5.81712578	     -4.89304826	      2.88914891	    -11.85535368	     -0.56838081	     -1.43388057	     -0.82818540	      2.30276778
      1.28250000	     -3.20800109	      3.32086894	      1.72130039	      0.32057578	      1.00165624	      0.28564555	     32.52462217	     -3.37249306	     -1.05100697	    -51.21853329	      6.73155137	    -15.74319880	     -1.69519178	      0.85771010	      8.35722321	      5.91559888	     -4.60953003	      2.99845565	    -11.86543119	     -0.61865031	     -1.48049697	     -0.80569559	      2.22896302
